<svg xmlns="http://www.w3.org/2000/svg" viewBox="0 0 100 100">
  <path fill="white" d="M90.9,33.1c0,0.3,0,0.7,0,1c-0.7,0.7-1.5,1.3-2.2,2c-0.5,0.5-1.2,0.8-1.4,1.4c-0.3,0.6-0.2,1.3-0.2,2c0,0.6,0.9,1.3,1.5,1.1  c-0.1-0.2-0.2-0.3-0.4-0.6c0.8,0.6,0.8,0.7,0.2,1.1c-0.2,0.1-0.7,0.1-0.8,0.2c-0.5,0.9-1.5,0.8-2.2,1.3c-0.5,0.3-1.1,0.7-1.5,1.1  c-0.2,0.2-0.4,0.7-0.3,0.9c0.7,1.3,0.1,2.2-0.5,3.1c-0.4-0.2-0.6-0.3-0.9-0.4c-0.1,0-0.1,0.1-0.2,0.1c1.9,1.4,0.6,2.8,0.3,4.2  c-0.1,0-0.2,0-0.3,0c0-0.6,0-1.3,0-1.9c-0.1,0-0.1,0-0.2,0c0,0.1-0.1,0.2-0.1,0.4c-0.2-0.3-0.3-0.4-0.5-0.7C81,49.7,80.9,49.9,81,50  c0.1,0.5,0.3,1.1,0.4,1.6c0.1,0.2,0.2,0.4,0.3,0.5c0.9,0.3,0.9,1.2,1.3,1.8c0.4,0.8,0.2,1.2-0.6,1.6c-0.2,0.1-0.3,0.4-0.5,0.6  c0.3,0.1,0.5,0.1,0.8,0.2c-0.4,0.3-0.6,0.6-0.9,0.7c-1.3,0.4-1.6,2.1-2.9,2.5c-0.1,0-0.2,0.3-0.2,0.4c-0.1,1-0.9,1.6-1.5,2.2  c-0.8,0.8-1.4,1.7-1.5,2.9c0,1.2,0.3,2.3,0.9,3.3c0.5,0.8,1.1,1.5,1.5,2.4c0.7,1.5,1.5,2.9,1.3,4.7c-0.1,0.9-0.3,1.5-1.3,2  c0.4-0.4,0.6-0.6,0.9-0.9l-0.1-0.1c-0.3,0.1-0.6,0.2-0.9,0.3c-0.3-0.4-0.6-0.9-0.9-1.2c-0.5-0.5-1.2-0.7-1.6-1.3  c-0.8-1.1-1.7-2.2-1.5-3.8c0.1-0.3-0.2-0.7-0.4-1c-0.4-0.4-0.9-0.7-1.4-1.1c-0.5-0.4-1-0.7-1.6,0c-0.4,0.4-0.9,0.7-1.6,0.3  c-0.5-0.4-1.2-0.7-1.8-0.7c-0.7-0.1-1.5,0.1-2.3,0.2c-0.1-0.2-0.2-0.4-0.2-0.4c-0.6,0.2-0.9,0.4-1.4,0.4C62.7,68,62,68,61.6,68.9  c0.3-0.1,0.5-0.2,0.7-0.3c0.1,0,0.1,0.1,0.2,0.1c-0.1,0.3-0.3,0.6-0.5,1c0.2,0.1,0.4,0.2,0.6,0.2c0.2,0.1,0.3,0.2,0.6,0.3  c-0.6,0.4-0.6,0.4-1.7-0.3c-0.1,0.3-0.3,0.5-0.5,0.9c-0.1-0.3-0.1-0.4-0.2-0.6C60,71,59.4,70.9,58.9,70c-0.2-0.3-0.7-0.4-1.1-0.6  c0,0.1-0.1,0.1-0.1,0.2c0.2,0.1,0.3,0.2,0.5,0.2c-0.8,0.1-1.6-0.1-2.3-0.1c-0.8,0-1.7,0.1-2.4,0.5C52,71,50.7,72.1,49.2,73  c-0.5,0.3-0.7,0.6-0.7,1.2c0,1,0,1.9,0,3c-0.7-0.2-1.4-0.4-2.1-0.7c-1-0.4-1.6-1.1-1.6-2.2c0-0.2-0.2-0.4-0.3-0.6  c-0.5-0.8-1.2-1.4-1.5-2.4c-0.3-1.1-1.2-1.8-2.4-2.1c-0.7-0.2-1.1,0-1.4,0.6c-0.2,0.3-0.4,0.6-0.6,1c-0.6-0.3-1.1-0.6-1.6-0.8  c-0.6-0.3-1-0.8-1-1.5c-0.1-1.8-2-2.3-2.7-3.7c0,0-0.1,0-0.2,0c-0.8-0.1-1.7-0.2-2.5-0.3c-0.1,0.3-0.2,0.6-0.3,0.9  c-0.9-0.1-1.7-0.3-2.6-0.3c-3-0.3-5.3-2.3-7.7-3.7c-0.4-0.2-0.8-0.5-1.2-0.5c-0.7-0.1-1.5-0.2-2.2-0.3c-0.2-0.1-0.5-0.4-0.6-0.6  c-0.1-0.9-0.3-1.7-1.3-2.1c-0.1,0-0.1-0.2-0.2-0.2c-0.8-0.8-1.4-1.7-2.5-2c-0.5-0.1-0.5-0.3-0.5-0.7c0-0.6-0.1-1.1-0.2-1.7  c-0.1-0.4-0.4-0.8-0.6-1.1c-0.3-0.6-0.5-1.1,0-1.5c-0.2-0.6-0.4-1.1-0.6-1.7c-0.2-0.8-0.1-1.6-0.5-2.3c-0.5-0.8-0.6-1.6-0.3-2.5  c0.1-0.4,0.2-1-0.4-1.2c0-0.1,0-0.2,0-0.3c0.7-1,1.5-2.1,1.2-3.5c-0.1-0.5,0.1-1.1,0.3-1.6c0.8-1.9,1.8-3.7,2.5-5.6  c0.3-0.8,0.2-1.8,0.3-2.7c0-0.6,0-1.2,0-1.9c1,0.3,1.6,1.4,2.7,0.8c0,0.2,0.1,0.3,0.1,0.5c0.1,0,0.1,0,0.2,0  c-0.1-0.6-0.2-1.1-0.3-1.7c0.1,0,0.2,0,0.3,0c0.9,0.3,1.8,0.5,2.7,0.8c10.4,2.6,20.9,4.2,31.7,4.1c0.6,0,1.2,0.1,1.3-1  c0.2,0.4,0.4,0.5,0.4,0.7c0,0.6,0.3,0.9,0.9,0.9c0.9,0.1,1.7,0.3,2.6,0.5c0.4,0.1,0.9,0.4,1.3,0.4c0.7,0.1,1.4,0,2.2,0  c0,0.1,0.1,0.2,0.1,0.4c-1.4,0.3-2.4,1.2-3.1,2.5c0.6-0.2,1-0.4,1.5-0.6c0,0.2,0,0.4,0,0.6c1.7,0.2,2.5-1.5,4-1.8  c-0.2,0.3-0.4,0.6-0.6,0.9c0.4,0.2,0.9,0.2,1,0.4c0.5,0.7,1,0.4,1.6,0.2c0.6-0.2,1.2-0.4,1.9-0.7c0.1,1.2,0.8,0.4,1.3,0.5  c0.1,0.3,0.2,0.7,0.3,1c-2.1,0.2-4.4,0.1-5,3.1c0.3-0.5,0.6-0.8,0.9-1.2c-0.2,1.3-0.4,2.4-0.6,3.7c-0.1,1.3,0.1,2.5,1.1,3.4  c1.2-0.7,1.6-2.2,0.9-3.4c-0.1-0.2-0.3-0.4-0.3-0.7c-0.2-1.7,0.8-3,1.8-4.2c0.1-0.1,0.5-0.1,0.7-0.1c0.3,0,0.5,0.2,0.8,0.3  c1.1,0.4,1.5,2,0.7,2.9c-0.1,0.2-0.1,0.4-0.2,0.6c0.1,0,0.2,0.1,0.3,0.1c0.2-0.2,0.3-0.5,0.5-0.7c0.1-0.1,0.4-0.3,0.6-0.2  c0.5,0.2,1.1,2.3,0.8,2.8c-0.4,0.6-0.7,1.1-1,1.7c0.9,0.4,1.5,0.7,2.3,0.1c0.8-0.6,1.8-1.1,2.6-1.7c0.7-0.6,1.7-1.1,0.8-2.4  c0.7-0.1,1.2-0.2,1.7-0.3c0.6-0.1,1.2-0.2,1.8-0.5c0.2-0.1,0.5-0.8,0.4-0.9c-0.5-0.6-0.1-0.9,0.3-1.3c0.2-0.2,0.3-0.4,0.4-0.6  c0.3-0.6,0.7-0.8,1.4-1c1.4-0.3,2.9-0.4,4.1-1.5c0.6-0.6,0.9-1.2,0.8-1.8c-0.1-1.1,0.2-2.1,0.6-3c0.4,0,0.7,0,0.9-0.1  c0.6-0.3,1.1-0.2,1.3,0.5c0.2,0.6,0.3,1.2,0.5,1.7C89.6,32.4,90,33,90.9,33.1z"/>
</svg>
