<svg xmlns="http://www.w3.org/2000/svg" xmlns:xlink="http://www.w3.org/1999/xlink" version="1.1" x="0px" y="0px" viewBox="0 0 68 85" style="enable-background:new 0 0 68 68;" xml:space="preserve"><g><g><g><g><g><path d="M28.9135723,37.4277344c-2.831543,0-5.6821289-0.5410156-8.5400391-1.9853516       c-0.4926758-0.2495117-0.6904297-0.8505859-0.4414063-1.34375c0.25-0.4921875,0.8505859-0.6884766,1.34375-0.4414063       c6.4912109,3.2817383,12.9541035,1.3891602,19.7963886-0.6157227c6.4331055-1.8833008,13.0693359-3.8276367,19.7553711-1.15625       l0.0463867-25.8081055c-6.3046875-2.9067383-12.5883789-1.065918-19.2314453,0.8798828       c-1.5517578,0.4545898-3.15625,0.9243164-4.7446289,1.3227539c-0.5351563,0.1357422-1.078125-0.190918-1.2128906-0.7265625       s0.190918-1.0786133,0.7265625-1.2128906c1.550293-0.3891602,3.1357422-0.8535156,4.6689453-1.3027344       c6.9077148-2.0234375,14.0517578-4.1152344,21.2456055-0.4799805C62.6635742,4.7280273,62.8759766,5.0742188,62.875,5.4521484       l-0.050293,27.9799805c-0.0009766,0.3466797-0.1806641,0.6679688-0.4760742,0.8496094       c-0.2949219,0.1816406-0.6625977,0.1972656-0.9726563,0.0419922       c-6.4702148-3.2480469-12.9165039-1.3613281-19.7416992,0.637207       C37.4658203,36.1816406,33.2119141,37.4277344,28.9135723,37.4277344z"/></g><g><path d="M28.9521465,20.9228516c-2.7675781,0-5.6455078-0.5136719-8.5258789-1.9594727       c-0.3378906-0.1694336-0.5512695-0.5151367-0.5512695-0.8935547v-11.5c0-0.3466797,0.1796875-0.6689453,0.4750977-0.8510742       c0.2944336-0.1826172,0.6635742-0.1987305,0.9736328-0.0424805c5.1953125,2.6074219,10.3212891,1.8603516,15.0878925,0.6640625       c0.2978516-0.0766602,0.6152344-0.0083008,0.8583984,0.1811523c0.2426758,0.1894531,0.3847656,0.4804688,0.3847656,0.7885742       v11.5c0,0.4584961-0.3120117,0.8583984-0.7568359,0.9697266C34.4375,20.3974609,31.7509747,20.9228516,28.9521465,20.9228516z        M21.8749981,17.4404297c4.7319336,2.1645508,9.3994141,1.625,13.7797871,0.5844727V8.5776367       c-4.1972675,0.9536133-8.9599628,1.4550781-13.7797871-0.4633789V17.4404297z"/></g><g><path d="M20.8720684,55.8198242h-5.0400391c-0.5522461,0-1-0.4477539-1-1V4.5200195       c0-0.9370117,0.3666992-1.8203125,1.0327148-2.4868164C16.5131817,1.3696289,17.3994122,1,18.3520489,1       c1.940918,0,3.5200195,1.5791016,3.5200195,3.5200195v50.2998047       C21.8720684,55.3720703,21.4243145,55.8198242,20.8720684,55.8198242z M16.8320293,53.8198242h3.0400391V4.5200195       C19.8720684,3.6816406,19.1904278,3,18.3520489,3c-0.4101563,0-0.7880859,0.1557617-1.0649414,0.4389648       c-0.2114258,0.2119141-0.4550781,0.5639648-0.4550781,1.0810547V53.8198242z"/></g><g><g><g><path d="M24.2299786,12.3022461c-0.0839844,0-0.1689453-0.0102539-0.2543945-0.0327148l-0.2827148-0.0766602         c-0.5317383-0.1484375-0.8427734-0.699707-0.6948242-1.2319336c0.1484375-0.53125,0.7006836-0.8432617,1.2319336-0.6948242         l0.253418,0.0688477c0.5341797,0.1401367,0.8535156,0.6870117,0.7133789,1.2211914         C25.0790997,12.0048828,24.6738262,12.3022461,24.2299786,12.3022461z"/></g><g><path d="M28.7651348,12.8862305c-0.0019531,0-0.003418,0-0.0053711,0l-0.2792969-0.003418         c-0.5517578-0.0092773-0.9921875-0.4643555-0.9833984-1.0166016         c0.0097656-0.5522461,0.4941406-0.9633789,1.0166016-0.9833984l0.2568359,0.003418         c0.5522461,0.0029297,0.9975586,0.453125,0.9946289,1.0053711         C29.7622051,12.4418945,29.3149395,12.8862305,28.7651348,12.8862305z"/></g><g><path d="M33.0317383,12.5332031c-0.4814453,0-0.9052734-0.3481445-0.9858398-0.8383789         c-0.0893574-0.5449219,0.2802734-1.059082,0.8251953-1.1484375l0.2626953-0.043457         c0.5498047-0.0932617,1.0610352,0.2744141,1.152832,0.8188477c0.0922852,0.5444336-0.2744141,1.0605469-0.8188477,1.152832         l-0.2734375,0.0454102C33.1396484,12.5288086,33.0854492,12.5332031,33.0317383,12.5332031z"/></g></g><g><g><path d="M24.2299786,16.7353516c-0.0839844,0-0.1689453-0.0102539-0.2543945-0.0327148l-0.2827148-0.0766602         c-0.5317383-0.1484375-0.8427734-0.699707-0.6948242-1.2319336c0.1484375-0.53125,0.7006836-0.8422852,1.2319336-0.6948242         l0.253418,0.0688477c0.5341797,0.1401367,0.8535156,0.6870117,0.7133789,1.2211914         C25.0790997,16.4379883,24.6738262,16.7353516,24.2299786,16.7353516z"/></g><g><path d="M28.7651348,17.3193359c-0.0019531,0-0.003418,0-0.0053711,0l-0.284668-0.0039063         c-0.5522461-0.012207-0.9897461-0.4697266-0.9780273-1.0219727c0.012207-0.5517578,0.4819336-1.003418,1.0219727-0.9780273         l0.2514648,0.0039063c0.5522461,0.0029297,0.9975586,0.453125,0.9946289,1.0053711         C29.7622051,16.875,29.3149395,17.3193359,28.7651348,17.3193359z"/></g><g><path d="M33.0317383,16.9663086c-0.4814453,0-0.9052734-0.3481445-0.9858398-0.8383789         c-0.0893574-0.5449219,0.2802734-1.059082,0.8251953-1.1484375l0.2626953-0.043457         c0.5498047-0.0922852,1.0610352,0.2744141,1.152832,0.8188477c0.0922852,0.5444336-0.2744141,1.0605469-0.8188477,1.152832         l-0.2734375,0.0454102C33.1396484,16.9619141,33.0854492,16.9663086,33.0317383,16.9663086z"/></g></g></g><g><path d="M36.6567383,14.2905273c-0.4472656,0-0.8549805-0.3027344-0.96875-0.7563477       c-0.1347656-0.5356445,0.1904297-1.0791016,0.7260742-1.2133789c1.5449219-0.3881836,3.125-0.8505859,4.6533203-1.2978516       c6.9145508-2.0234375,14.0634766-4.1152344,21.2558594-0.4785156c0.4931641,0.2495117,0.6904297,0.8510742,0.4414063,1.34375       s-0.8500977,0.6914063-1.34375,0.4414063c-6.487793-3.2807617-12.949707-1.3896484-19.7915039,0.612793       c-1.546875,0.4526367-3.1459961,0.9208984-4.7280273,1.3178711       C36.8193359,14.2807617,36.7373047,14.2905273,36.6567383,14.2905273z"/></g><g><path d="M36.6567383,19.8081055c-0.4472656,0-0.8549805-0.3027344-0.96875-0.7563477       c-0.1347656-0.5361328,0.1904297-1.0791016,0.7260742-1.2133789c1.5454102-0.3881836,3.1264648-0.8505859,4.6552734-1.2983398       c6.9130859-2.0229492,14.0615234-4.1152344,21.2539063-0.4780273c0.4931641,0.2495117,0.6904297,0.8510742,0.4414063,1.34375       s-0.8500977,0.6914063-1.34375,0.4414063c-6.4882813-3.28125-12.9487305-1.3901367-19.7900391,0.6123047       c-1.546875,0.453125-3.1469727,0.9213867-4.7294922,1.3183594       C36.8193359,19.7983398,36.7373047,19.8081055,36.6567383,19.8081055z"/></g><g><path d="M28.9169903,26.4414063c-2.8164063,0-5.6513672-0.534668-8.4936523-1.9624023       c-0.4936523-0.2480469-0.6928711-0.8486328-0.4448242-1.3422852c0.2475586-0.4931641,0.8486328-0.6918945,1.3422852-0.4448242       c6.4746094,3.2514648,12.9218769,1.3642578,19.7485371-0.6337891       c6.9130859-2.0234375,14.0615234-4.1142578,21.2539063-0.4780273c0.4931641,0.2495117,0.6904297,0.8510742,0.4414063,1.34375       c-0.2490234,0.4931641-0.8500977,0.690918-1.34375,0.4414063c-6.4882813-3.28125-12.9492188-1.3896484-19.7900391,0.6123047       C37.4648438,25.1967773,33.2128906,26.4414063,28.9169903,26.4414063z"/></g><g><path d="M28.9169903,31.9594727c-2.8164063,0-5.6513672-0.534668-8.4936523-1.9624023       c-0.4936523-0.2480469-0.6928711-0.8486328-0.4448242-1.3422852c0.2475586-0.4936523,0.8486328-0.6928711,1.3422852-0.4448242       c6.4746094,3.2509766,12.9223652,1.3642578,19.7480488-0.6342773       c6.9135742-2.0224609,14.0620117-4.1142578,21.2543945-0.4780273c0.4931641,0.2495117,0.6904297,0.8510742,0.4414063,1.34375       c-0.2490234,0.4921875-0.8500977,0.690918-1.34375,0.4414063c-6.4882813-3.2817383-12.9487305-1.3901367-19.7900391,0.6123047       C37.4648438,30.7148438,33.2128906,31.9594727,28.9169903,31.9594727z"/></g></g></g><g><path d="M30.5747051,67H6.1249981c-0.5522461,0-1-0.4477539-1-1v-3.5898438c0-1.6542969,1.3457031-3,3-3h20.449707     c1.6542969,0,3,1.3457031,3,3V66C31.5747051,66.5522461,31.1269512,67,30.5747051,67z M7.1249981,65h22.449707v-2.5898438     c0-0.5512695-0.4487305-1-1-1H8.1249981c-0.5512695,0-1,0.4487305-1,1V65z"/></g><g><path d="M25.5522442,61.4101563H11.1420879c-0.5522461,0-1-0.4477539-1-1v-3.590332c0-1.6542969,1.3457031-3,3-3h10.4101563     c1.6542969,0,3,1.3457031,3,3v3.590332C26.5522442,60.9624023,26.1044903,61.4101563,25.5522442,61.4101563z      M12.1420879,59.4101563h12.4101563v-2.590332c0-0.5512695-0.4487305-1-1-1H13.1420879c-0.5512695,0-1,0.4487305-1,1V59.4101563z     "/></g></g></g></svg>
