<svg xmlns="http://www.w3.org/2000/svg" version="1.1" viewBox="-5.0 -10.0 110.0 135.0">
 <path d="m21.781 81h56.43c3.5898 0 6.5-2.9102 6.5-6.5v-23.262h-26.449v4.4414c0 1.6602-1.3398 3-3 3h-8.8711c-1.6602 0-3-1.3398-3-3v-4.4414h-28.109v23.262c0 3.5898 2.9102 6.5 6.5 6.5z"/>
 <path d="m84.719 35.422c0-3.5898-2.9102-6.5-6.5-6.5h-13.34v-2.2109c0-4.25-3.4609-7.7109-7.7109-7.7109h-14.34c-4.25 0-7.7109 3.4609-7.7109 7.7109v2.2109h-13.34c-3.5898 0-6.5 2.9102-6.5 6.5v10.859h69.441zm-24.797-6.5h-19.84v-2.2109c0-1.5195 1.2383-2.75 2.75-2.75h14.34c1.5195 0 2.75 1.2383 2.75 2.75z"/>
</svg>
